<svg width="1204" height="122" viewBox="0 0 1204 122" fill="none" xmlns="http://www.w3.org/2000/svg">
<g opacity="0.15">
<path d="M9.17502 102.933C4.10595 102.933 0 98.7808 0 93.6548V28.0431C0 22.9171 4.10595 18.7651 9.17502 18.7651C14.2441 18.7651 18.35 22.9171 18.35 28.0431V93.6805C18.35 98.8064 14.2441 102.958 9.17502 102.958" fill="#6F6D6B"/>
<path d="M44.6581 121.488H27.5246C22.4556 121.488 18.3496 117.336 18.3496 112.21C18.3496 107.084 22.4556 102.932 27.5246 102.932H44.6581C67.621 102.932 86.2752 84.0427 86.2752 60.8479C86.2752 37.6531 67.5957 18.7641 44.6581 18.7641H27.5246C22.4556 18.7641 18.3496 14.6121 18.3496 9.48617C18.3496 4.36025 22.4556 0.208252 27.5246 0.208252H44.6581C77.7085 0.208252 104.625 27.4013 104.625 60.8479C104.625 94.2945 77.7085 121.488 44.6581 121.488Z" fill="#6F6D6B"/>
<path d="M195.568 60.8369C195.568 68.2182 189.638 74.2156 182.338 74.2156C175.039 74.2156 169.108 68.2182 169.108 60.8369C169.108 53.4556 175.039 47.4583 182.338 47.4583C189.638 47.4583 195.568 53.4556 195.568 60.8369Z" fill="#6F6D6B"/>
<path d="M229.43 51.5856C225.755 51.5856 222.283 49.3302 220.863 45.6395C214.451 28.8009 200.055 18.7284 182.338 18.7284C164.622 18.7284 150.226 28.7753 143.813 45.6395C141.988 50.4323 136.691 52.8158 131.952 50.9705C127.212 49.1252 124.855 43.7686 126.68 38.9758C135.804 15.0634 157.12 0.198242 182.338 0.198242C207.557 0.198242 228.872 15.0634 237.971 39.0015C239.796 43.7686 237.439 49.1508 232.7 50.9961C231.61 51.4318 230.494 51.6112 229.405 51.6112" fill="#6F6D6B"/>
<path d="M135.247 70.0924C138.922 70.0924 142.394 72.3478 143.813 76.0385C150.226 92.8772 164.622 102.95 182.338 102.95C200.055 102.95 214.451 92.9028 220.863 76.0385C222.688 71.2458 227.985 68.8622 232.725 70.7075C237.465 72.5529 239.822 77.9095 237.997 82.7022C228.898 106.64 207.582 121.505 182.364 121.505C157.145 121.505 135.83 106.64 126.731 82.7022C124.906 77.9351 127.263 72.5529 132.002 70.7075C133.092 70.2718 134.208 70.0924 135.297 70.0924" fill="#6F6D6B"/>
<path d="M269.226 102.933C264.157 102.933 260.051 98.781 260.051 93.6551V28.0176C260.051 22.8917 264.157 18.7397 269.226 18.7397C274.295 18.7397 278.401 22.8917 278.401 28.0176V93.6551C278.401 98.781 274.295 102.933 269.226 102.933Z" fill="#6F6D6B"/>
<path d="M304.709 121.488H287.576C282.507 121.488 278.401 117.336 278.401 112.21C278.401 107.084 282.507 102.932 287.576 102.932H304.709C327.672 102.932 346.326 84.0427 346.326 60.8479C346.326 37.6531 327.647 18.7641 304.709 18.7641H287.576C282.507 18.7641 278.401 14.6121 278.401 9.48618C278.401 4.36025 282.507 0.208252 287.576 0.208252H304.709C337.785 0.208252 364.677 27.4013 364.677 60.8479C364.677 94.2945 337.785 121.488 304.709 121.488Z" fill="#6F6D6B"/>
<path d="M462.547 103.481C462.547 110.863 456.616 116.86 449.317 116.86C442.017 116.86 436.086 110.863 436.086 103.481C436.086 96.1001 442.017 90.1028 449.317 90.1028C456.616 90.1028 462.547 96.1001 462.547 103.481Z" fill="#6F6D6B"/>
<path d="M503.327 116.855C500.184 116.855 497.092 115.215 495.394 112.268L449.316 32.4827L403.213 112.268C400.653 116.702 395.052 118.188 390.667 115.6C386.282 113.011 384.812 107.347 387.372 102.913L441.383 9.41607C443.031 6.57118 446.047 4.82837 449.291 4.82837C452.535 4.82837 455.577 6.57118 457.224 9.41607L511.235 102.913C513.795 107.347 512.325 113.011 507.94 115.6C506.495 116.471 504.899 116.855 503.327 116.855Z" fill="#6F6D6B"/>
<path d="M599.61 113.896H606.983C609.309 113.896 611.14 113.235 612.421 111.886C613.702 110.565 614.329 108.714 614.329 106.44V79.977H651.506C652.63 79.977 653.728 79.554 654.721 78.708C655.689 77.862 656.186 76.593 656.186 74.9011V70.301H557.492V80.0034H599.584V113.922L599.61 113.896Z" fill="#6F6D6B"/>
<path d="M580.891 57.2137H636.708C638.094 57.2137 639.192 56.8436 640.028 56.0769C640.865 55.3102 641.257 54.2792 641.257 52.878V47.4056H589.231C587.845 47.4056 586.747 47.0619 585.963 46.401C585.152 45.7136 584.734 44.4446 584.734 42.6205V24.6698C584.734 22.9249 585.205 21.6031 586.12 20.7042C587.035 19.8318 588.211 19.3823 589.597 19.3823H635.375C636.734 19.3823 637.858 18.9858 638.695 18.2456C639.532 17.4789 639.924 16.395 639.924 14.9145V9.57422H580.917C577.675 9.57422 575.035 10.6317 573.021 12.7467C571.008 14.8616 569.989 17.7433 569.989 21.3651V45.3699C569.989 49.124 571.008 52.0849 573.021 54.1735C575.035 56.2355 577.675 57.293 580.917 57.293L580.891 57.2137Z" fill="#6F6D6B"/>
<path d="M692.056 63.4052H747.873C749.259 63.4052 750.357 63.0351 751.193 62.2684C752.03 61.5018 752.422 60.4443 752.422 59.0696V53.5971H700.396C699.01 53.5971 697.912 53.2534 697.128 52.5925C696.291 51.9051 695.899 50.6626 695.899 48.7856V24.6486C695.899 22.9037 696.37 21.5819 697.285 20.683C698.2 19.7842 699.376 19.3347 700.762 19.3347H746.54C747.925 19.3347 749.023 18.9646 749.86 18.1979C750.671 17.4577 751.089 16.3209 751.089 14.8669V9.52661H692.082C688.84 9.52661 686.2 10.5841 684.187 12.6991C682.173 14.814 681.154 17.6956 681.154 21.3175V51.5086C681.154 55.2626 682.173 58.2236 684.187 60.3121C686.2 62.3742 688.84 63.4317 692.082 63.4317L692.056 63.4052Z" fill="#6F6D6B"/>
<path d="M767.35 83.9204H668.656V93.6228H762.67C763.794 93.6228 764.892 93.1998 765.886 92.3538C766.853 91.5078 767.35 90.2389 767.35 88.5469V83.9469V83.9204Z" fill="#6F6D6B"/>
<path d="M788.709 63.6691H833.389C834.278 63.6691 835.141 63.299 835.977 62.5323C836.814 61.7656 837.206 60.8932 837.206 59.8093V53.8345H796.186C794.958 53.8345 793.99 53.4909 793.363 52.8035C792.735 52.1161 792.422 51.1115 792.422 49.7897V40.4046H820.762C823.977 40.4046 826.461 39.4528 828.082 37.5494C829.729 35.6459 830.566 33.2666 830.566 30.4642V16.9814C830.566 14.8664 829.886 13.0687 828.579 11.6411C827.272 10.2399 825.441 9.52612 823.193 9.52612H778.879V19.3607H816.317V27.3711C816.317 28.3757 816.004 29.1688 815.402 29.724C814.801 30.2792 814.017 30.57 813.023 30.57H777.65V51.6403C777.65 55.3943 778.696 58.3817 780.788 60.4967C782.879 62.6116 785.52 63.6691 788.683 63.6691H788.709Z" fill="#6F6D6B"/>
<path d="M810.488 113.898H849.782C854.802 113.898 858.593 112.338 861.076 109.272C863.586 106.179 864.841 102.398 864.841 98.036V73.1323H799.455V102.107C799.455 105.861 800.475 108.796 802.462 110.832C804.475 112.867 807.168 113.872 810.488 113.872V113.898ZM814.305 82.9669H850.122V98.036C850.122 100.098 849.573 101.658 848.475 102.689C847.377 103.694 845.965 104.196 844.266 104.196H818.07C817.024 104.196 816.135 103.958 815.429 103.535C814.671 103.059 814.279 101.975 814.279 100.283V82.9669H814.305Z" fill="#6F6D6B"/>
<path d="M864.266 62.9012C865.547 61.5793 866.2 59.7288 866.2 57.4552V7.78003H851.351V64.884H858.828C861.181 64.884 863.011 64.223 864.266 62.8748V62.9012Z" fill="#6F6D6B"/>
<path d="M982.21 7.78003H967.481V110.232H974.859C977.196 110.232 979.033 109.568 980.294 108.24C981.58 106.913 982.21 105.081 982.21 102.798V48.7181H997.911V39.0279H982.21V7.80657V7.78003Z" fill="#6F6D6B"/>
<path d="M910.956 64.0093V27.8499C910.956 26.1243 911.428 24.7703 912.347 23.8942C913.266 23.0181 914.448 22.5667 915.839 22.5667H946.426C947.817 22.5667 948.894 22.1951 949.734 21.4251C950.548 20.6818 950.968 19.5402 950.968 18.1065V12.7703H907.123C903.893 12.7703 901.242 13.8322 899.22 15.9561C897.225 18.08 896.201 20.9738 896.201 24.5579V66.7703C896.201 70.5402 897.225 73.4872 899.22 75.558C901.215 77.6288 903.867 78.6642 907.123 78.6642H951.204C952.569 78.6642 953.698 78.2659 954.512 77.5226C955.326 76.7792 955.746 75.6907 955.746 74.3102V68.8411H915.445C914.054 68.8411 912.951 68.496 912.163 67.8323C911.35 67.142 910.93 65.8677 910.93 64.0358L910.956 64.0093Z" fill="#6F6D6B"/>
<path d="M1034.19 20.6808C1035.11 19.8047 1036.29 19.3534 1037.69 19.3534H1083.47C1084.84 19.3534 1085.97 18.9551 1086.78 18.2118C1087.6 17.4684 1088.02 16.3268 1088.02 14.8932V9.55688H1028.97C1025.74 9.55688 1023.09 10.6188 1021.07 12.7162C1019.07 14.8135 1018.05 17.7339 1018.05 21.318V51.5304C1018.05 55.3003 1019.07 58.2472 1021.07 60.318C1023.06 62.3888 1025.74 63.4242 1028.97 63.4242H1084.81C1086.18 63.4242 1087.31 63.026 1088.12 62.2826C1088.93 61.5393 1089.35 60.4508 1089.35 59.0702V53.6012H1037.29C1035.9 53.6012 1034.8 53.2561 1034.01 52.5924C1033.2 51.9021 1032.78 50.6543 1032.78 48.7959V24.6631C1032.78 22.9109 1033.25 21.5835 1034.17 20.7073L1034.19 20.6808Z" fill="#6F6D6B"/>
<path d="M1104.29 88.5402V83.9473H1005.58V93.6376H1099.62C1100.75 93.6376 1101.83 93.2128 1102.82 92.3632C1103.8 91.5402 1104.29 90.2393 1104.29 88.5402Z" fill="#6F6D6B"/>
<path d="M1203.2 57.4527V7.78003H1188.34V64.9129H1195.82C1198.15 64.9129 1199.99 64.2491 1201.25 62.9217C1202.54 61.5943 1203.17 59.7624 1203.17 57.4792L1203.2 57.4527Z" fill="#6F6D6B"/>
<path d="M1174.16 53.8425H1133.12C1131.89 53.8425 1130.94 53.4973 1130.29 52.8071C1129.66 52.1168 1129.34 51.1079 1129.34 49.7805V40.3823H1157.72C1160.95 40.3823 1163.42 39.4265 1165.05 37.5416C1166.7 35.63 1167.54 33.2672 1167.54 30.453V16.9663C1167.54 14.8424 1166.89 13.0371 1165.55 11.63C1164.23 10.2229 1162.42 9.5061 1160.16 9.5061H1115.85V19.3291H1153.29V27.3468C1153.29 28.3557 1152.97 29.1522 1152.39 29.7097C1151.79 30.2672 1151 30.5327 1150 30.5327H1114.61V51.6124C1114.61 55.3823 1115.66 58.3557 1117.76 60.4531C1119.84 62.5504 1122.49 63.6389 1125.67 63.6389H1170.35C1171.24 63.6389 1172.11 63.2407 1172.92 62.4973C1173.76 61.7274 1174.16 60.8513 1174.16 59.7894V53.8159V53.8425Z" fill="#6F6D6B"/>
<path d="M1147.46 113.922H1186.76C1191.77 113.922 1195.58 112.356 1198.05 109.276C1200.57 106.17 1201.83 102.4 1201.83 98.046V73.1433H1136.4V102.134C1136.4 105.904 1137.43 108.825 1139.42 110.869C1141.42 112.887 1144.12 113.922 1147.43 113.922H1147.46ZM1151.26 82.9663H1187.1V98.046C1187.1 100.117 1186.55 101.683 1185.45 102.692C1184.37 103.701 1182.95 104.205 1181.25 104.205H1155.04C1153.99 104.205 1153.13 103.966 1152.42 103.542C1151.66 103.064 1151.29 102.002 1151.29 100.276V82.9663H1151.26Z" fill="#6F6D6B"/>
</g>
</svg>
