<svg width="80" height="80" viewBox="0 0 80 80" fill="none" xmlns="http://www.w3.org/2000/svg">
<rect x="10" y="15" width="60" height="43" rx="5" fill="#F9DCD3"/>
<path d="M10 50H70V53C70 55.7614 67.7614 58 65 58H15C12.2386 58 10 55.7614 10 53V50Z" fill="#A76F58"/>
<path d="M33.3034 58.3458C33.5822 57.5403 34.3409 57 35.1934 57H44.8066C45.6591 57 46.4178 57.5403 46.6966 58.3458L48.0812 62.3458C48.5309 63.6449 47.5661 65 46.1913 65H33.8087C32.4339 65 31.4691 63.6449 31.9188 62.3458L33.3034 58.3458Z" fill="#A76F58"/>
<circle cx="30.5" cy="34.5" r="2.5" fill="#A76F58"/>
<circle cx="40.5" cy="34.5" r="2.5" fill="#A76F58"/>
<circle cx="50.5" cy="34.5" r="2.5" fill="#A76F58"/>
</svg>
