<svg width="80" height="80" viewBox="0 0 80 80" fill="none" xmlns="http://www.w3.org/2000/svg">
<path d="M43 63.5H54C58.4183 63.5 62 59.9183 62 55.5V52" stroke="#F9DCD3" stroke-width="2" stroke-linecap="round"/>
<path d="M17 33.5V33C17 21.9543 25.9543 13 37 13H42.5C53.5457 13 62.5 21.9543 62.5 33V38" stroke="#F9DCD3" stroke-width="4" stroke-linecap="round"/>
<path d="M11 40C11 36.6863 13.6863 34 17 34H20C21.1046 34 22 34.8954 22 36V52C22 53.1046 21.1046 54 20 54H17C13.6863 54 11 51.3137 11 48V40Z" fill="#A76F58"/>
<path d="M69 48C69 51.3137 66.3137 54 63 54L60 54C58.8954 54 58 53.1046 58 52L58 36C58 34.8954 58.8954 34 60 34L63 34C66.3137 34 69 36.6863 69 40L69 48Z" fill="#A76F58"/>
<rect x="47" y="60" width="7" height="14" rx="3.5" transform="rotate(90 47 60)" fill="#A76F58"/>
</svg>
