<svg width="80" height="80" viewBox="0 0 80 80" fill="none" xmlns="http://www.w3.org/2000/svg">
<path d="M49.1855 10C51.9468 10.0002 54.1855 12.2387 54.1855 15V35.123C54.1855 37.8843 51.9468 40.1229 49.1855 40.123H16.5312L9 47.6543V36.3584H9.1543C9.05393 35.9634 9 35.5493 9 35.123V15C9 12.2386 11.2386 10 14 10H49.1855Z" fill="#F9DCD3"/>
<circle cx="24.4384" cy="25.4394" r="1.88272" fill="white"/>
<circle cx="31.9691" cy="25.4394" r="1.88272" fill="white"/>
<circle cx="39.4999" cy="25.4394" r="1.88272" fill="white"/>
<path d="M65.0005 33.3457C67.7617 33.3459 70.0005 35.5844 70.0005 38.3457V58.4688C70.0005 58.895 69.9465 59.3091 69.8462 59.7041H70.0005V71L62.4683 63.4688H29.8149C27.0535 63.4688 24.8149 61.2302 24.8149 58.4688V38.3457C24.8149 35.5843 27.0535 33.3457 29.8149 33.3457H65.0005Z" fill="#A76F58"/>
<circle cx="40.2533" cy="48.7848" r="1.88272" fill="white"/>
<circle cx="47.7841" cy="48.7848" r="1.88272" fill="white"/>
<circle cx="55.3148" cy="48.7848" r="1.88272" fill="white"/>
</svg>
