<svg xmlns="http://www.w3.org/2000/svg" xmlns:xlink="http://www.w3.org/1999/xlink" width="22.849" height="22.849" viewBox="0 0 22.849 22.849">
  <defs>
    <clipPath id="clip-path">
      <rect id="사각형_1497" data-name="사각형 1497" width="22.849" height="22.849" fill="none"/>
    </clipPath>
  </defs>
  <g id="그룹_6563" data-name="그룹 6563" transform="translate(0 0)">
    <g id="그룹_6562" data-name="그룹 6562" transform="translate(0 0)" clip-path="url(#clip-path)">
      <path id="패스_5026" data-name="패스 5026" d="M19.9,13.031a2.108,2.108,0,1,0,2.091,2.117A2.163,2.163,0,0,0,19.9,13.031" transform="translate(-8.526 -6.248)" fill="#f9e000"/>
      <path id="패스_5027" data-name="패스 5027" d="M17.577,0H5.273A5.274,5.274,0,0,0,0,5.273v12.3a5.274,5.274,0,0,0,5.273,5.273h12.3a5.273,5.273,0,0,0,5.273-5.273V5.273A5.273,5.273,0,0,0,17.577,0M17.52,9.4a6.814,6.814,0,0,1-1.9,3.871,17.826,17.826,0,0,0-3.732,6.27c-.083.251-.177.549-.527.557-.321.008-.433-.257-.508-.491a20.025,20.025,0,0,0-4.1-6.79A6.053,6.053,0,0,1,5.177,8.842,6.183,6.183,0,1,1,17.52,9.4" transform="translate(0 0)" fill="#f9e000"/>
      <path id="패스_5028" data-name="패스 5028" d="M16.128,5.185a6.159,6.159,0,0,0-6.183,6.143,6.056,6.056,0,0,0,1.586,3.98,20.015,20.015,0,0,1,4.1,6.79c.075.234.187.5.508.491.35-.009.444-.306.527-.558a17.826,17.826,0,0,1,3.732-6.27,6.814,6.814,0,0,0,1.9-3.871,6.14,6.14,0,0,0-6.16-6.7m2.1,6.2a2.1,2.1,0,1,1-2.091-2.117,2.162,2.162,0,0,1,2.091,2.117" transform="translate(-4.768 -2.486)" fill="#007dfd"/>
    </g>
  </g>
</svg>
