<svg width="80" height="80" viewBox="0 0 80 80" fill="none" xmlns="http://www.w3.org/2000/svg">
<path d="M14.7176 24.8789H10.9435C10.4224 24.8789 10 25.3013 10 25.8224V72.0556C10 72.5767 10.4224 72.9992 10.9435 72.9992H14.7176C15.2387 72.9992 15.6611 72.5767 15.6611 72.0556V25.8224C15.6611 25.3013 15.2387 24.8789 14.7176 24.8789Z" stroke="#A76F58" stroke-width="3" stroke-linecap="round" stroke-linejoin="round"/>
<path d="M68.9706 24.8789H65.1965C64.6754 24.8789 64.2529 25.3013 64.2529 25.8224V72.0556C64.2529 72.5767 64.6754 72.9992 65.1965 72.9992H68.9706C69.4916 72.9992 69.9141 72.5767 69.9141 72.0556V25.8224C69.9141 25.3013 69.4916 24.8789 68.9706 24.8789Z" stroke="#A76F58" stroke-width="3" stroke-linecap="round" stroke-linejoin="round"/>
<path d="M33.1163 67.3398H16.1328" stroke="#A76F58" stroke-width="3" stroke-linecap="round" stroke-linejoin="round"/>
<path d="M16.1328 44.6934H33.1163" stroke="#A76F58" stroke-width="3" stroke-linecap="round" stroke-linejoin="round"/>
<path d="M63.6298 69.2258H34.0597C33.5408 69.2258 33.1162 68.8012 33.1162 68.2822V42.8068C33.1162 42.2879 33.5408 41.8633 34.0597 41.8633H63.6298" stroke="#A76F58" stroke-width="3" stroke-linecap="round" stroke-linejoin="round"/>
<path d="M16.1328 38.0898H20.2183C23.6904 38.0898 26.5116 40.9016 26.5116 44.3832" stroke="#A76F58" stroke-width="3" stroke-linecap="round" stroke-linejoin="round"/>
<path d="M43.3627 20.191C43.3627 18.1907 41.7398 16.7754 39.7395 16.7754C38.2676 16.7754 37.0033 17.6529 36.4372 18.9172C35.8711 17.6529 34.6068 16.7754 33.1349 16.7754C31.1346 16.7754 29.5117 18.1813 29.5117 20.191C29.5117 20.5024 29.6532 21.6252 30.4175 22.748C32.2951 25.5031 35.9843 28.7205 36.4466 28.7205C36.975 28.7205 40.5698 25.4842 42.3625 22.748C42.9758 21.8233 43.3721 20.4552 43.3721 20.191H43.3627Z" stroke="#A76F58" stroke-width="3" stroke-linecap="round" stroke-linejoin="round"/>
<path d="M54.034 10.2834C54.034 8.94353 52.9489 8 51.6091 8C50.6278 8 49.7787 8.58499 49.4013 9.43417C49.0239 8.59443 48.1747 8 47.1934 8C45.8536 8 44.7686 8.94353 44.7686 10.2834C44.7686 10.4909 44.8629 11.2363 45.3724 11.9912C46.6273 13.831 49.0899 15.9823 49.4013 15.9823C49.7504 15.9823 52.1564 13.8216 53.3546 11.9912C53.7603 11.3684 54.034 10.4626 54.034 10.2834Z" stroke="#A76F58" stroke-width="3" stroke-linecap="round" stroke-linejoin="round"/>
</svg>
