<svg width="70" height="100" viewBox="0 0 70 100" fill="none" xmlns="http://www.w3.org/2000/svg">
<path d="M65.0362 67.3477H47.7213C34.2298 67.3477 23.2925 56.4103 23.2925 42.9188V2.17799C23.2925 1.34751 22.556 0.720724 21.7412 0.84608C14.2511 2.03697 8.24971 4.46575 6.13432 8.16376C-1.48108 21.5299 -2.6563 82.1711 9.848 94.4873C18.2626 102.777 59.6929 100.834 66.5091 94.4873C71.9935 89.3791 68.9692 80.1967 66.4308 68.4132C66.2897 67.7707 65.7256 67.3477 65.0675 67.3477C65.0518 67.3477 65.0362 67.3477 65.0205 67.3477H65.0362Z" fill="white"/>
<path d="M47.7374 58.3377H63.1876C63.9868 58.3377 64.6135 57.6483 64.5195 56.8648C64.3002 54.7964 64.1591 52.681 64.1435 50.5186C63.8927 27.6098 73.3885 22.1411 66.5409 10.6866C62.3258 3.65101 47.6121 0.0783478 33.6662 0C32.9297 0 32.3186 0.611113 32.3186 1.34758V42.9346C32.3186 51.4431 39.2132 58.3534 47.7374 58.3534V58.3377Z" fill="white"/>
</svg>
