<svg width="68" height="100" viewBox="0 0 68 100" fill="none" xmlns="http://www.w3.org/2000/svg">
<path d="M3.27598 8.23826C-4.64492 22.3567 4.98347 36.1432 5.39453 51.6213C5.78978 66.7359 -2.66865 82.0243 3.52893 92.5222C5.55263 95.953 16.0506 98.6724 27.9873 99.6368C28.7778 99.7001 29.4576 99.0835 29.4576 98.293V1.36084C29.4576 0.58614 28.8252 -0.0304563 28.0505 0.00116405C16.5565 0.491279 6.20086 3.02091 3.27598 8.23826Z" fill="white"/>
<path d="M63.1961 50.7032C63.5913 34.3239 71.5438 17.8971 65.7099 8.2371C63.1486 4.01579 52.1448 1.0909 40.0026 0.205536C39.2121 0.142295 38.5322 0.774701 38.5322 1.56521C38.5322 1.56521 38.5322 86.7029 38.5322 98.6396C38.5322 99.3985 39.1488 100.015 39.9077 99.9993C50.3266 99.7463 60.0973 97.944 64.7613 93.9124C71.7652 87.8729 62.8799 62.1814 63.1645 50.719L63.1961 50.7032Z" fill="white"/>
</svg>
