<svg width="80" height="80" viewBox="0 0 80 80" fill="none" xmlns="http://www.w3.org/2000/svg">
<path d="M57.3991 16.696C57.3991 11.5954 53.2663 8 48.15 8C44.3939 8 41.161 10.2367 39.7171 13.4559C38.2733 10.2367 35.0403 8 31.2842 8C26.1784 8 22.0352 11.5954 22.0352 16.696C22.0352 17.4903 22.3804 20.3332 24.3474 23.2179C29.1393 30.2311 38.5453 38.4359 39.7171 38.4359C41.0563 38.4359 50.2426 30.1893 54.8148 23.2179C56.3633 20.8558 57.3991 17.3858 57.3991 16.696Z" stroke="#A76F58" stroke-width="3" stroke-linecap="round" stroke-linejoin="round"/>
<path d="M63.6035 63.7393V59.5063C63.6035 57.8549 69.3789 50.3295 71.8795 45.9084C72.6224 44.6019 73.0199 43.0655 73.0199 41.5082V19.2875C73.0199 16.0474 70.4775 13.4449 67.5689 13.9675C65.2566 14.3751 63.6035 16.779 63.6035 19.4547V31.234" stroke="#A76F58" stroke-width="3" stroke-linecap="round" stroke-linejoin="round"/>
<path d="M60.3809 47.4438L65.5599 39.5212C66.8259 37.3054 66.5748 34.2848 64.8171 32.5707C62.6932 30.4804 59.502 31.0761 58.0268 33.6682L49.2381 47.9454C48.2233 49.3983 47.606 51.2378 47.606 53.2341V63.7487" stroke="#A76F58" stroke-width="3" stroke-linecap="round" stroke-linejoin="round"/>
<path d="M64.336 63.7383H47.8049C46.6493 63.7383 45.7124 64.6742 45.7124 65.8287V70.8978C45.7124 72.0523 46.6493 72.9882 47.8049 72.9882H64.336C65.4917 72.9882 66.4285 72.0523 66.4285 70.8978V65.8287C66.4285 64.6742 65.4917 63.7383 64.336 63.7383Z" stroke="#A76F58" stroke-width="3" stroke-linecap="round" stroke-linejoin="round"/>
<path d="M16.4164 63.7393V59.5063C16.4164 57.8549 10.641 50.3295 8.14043 45.9084C7.39758 44.6019 7 43.0655 7 41.5082V19.2875C7 16.0474 9.54243 13.4449 12.4511 13.9675C14.7633 14.3751 16.4164 16.779 16.4164 19.4547V31.234" stroke="#A76F58" stroke-width="3" stroke-linecap="round" stroke-linejoin="round"/>
<path d="M19.6391 47.4438L14.4601 39.5212C13.1941 37.3054 13.4452 34.2848 15.2029 32.5707C17.3269 30.4804 20.518 31.0761 21.9932 33.6682L30.7819 47.9454C31.7968 49.3983 32.4141 51.2378 32.4141 53.2341V63.7487" stroke="#A76F58" stroke-width="3" stroke-linecap="round" stroke-linejoin="round"/>
<path d="M15.684 73H32.2151C33.3708 73 34.3076 72.0641 34.3076 70.9096V65.8405C34.3076 64.686 33.3708 63.7501 32.2151 63.7501H15.684C14.5283 63.7501 13.5915 64.686 13.5915 65.8405V70.9096C13.5915 72.0641 14.5283 73 15.684 73Z" stroke="#A76F58" stroke-width="3" stroke-linecap="round" stroke-linejoin="round"/>
</svg>
