<svg width="66" height="100" viewBox="0 0 66 100" fill="none" xmlns="http://www.w3.org/2000/svg">
<path d="M49.2982 22.4192H63.1762C63.891 22.4192 64.4816 21.8597 64.5127 21.1448C64.7924 15.5346 63.8289 10.6547 60.0214 7.18912C48.8786 -2.91245 15.963 -2.02662 8.00609 7.70197C-3.36983 21.611 -1.52046 87.1313 12.1244 95.1193C14.611 96.5802 18.6982 97.8079 23.5159 98.6782C24.3395 98.8181 25.0855 98.1964 25.0855 97.3572V46.6474C25.0855 33.2667 35.933 22.4192 49.3137 22.4192H49.2982Z" fill="white"/>
<path d="M34.0054 46.6477V98.6008C34.0054 99.3157 34.5648 99.9062 35.2797 99.9373C46.3293 100.357 57.7518 98.7251 62.3364 93.6588C70.2622 84.8782 60.5802 67.9076 60.3938 51.4653C60.3316 45.4821 61.6526 39.0793 62.8337 32.9406C62.9891 32.117 62.3519 31.3555 61.5282 31.3555H49.3131C40.8744 31.3555 34.0209 38.1934 34.0209 46.6477H34.0054Z" fill="white"/>
</svg>
