<svg width="80" height="80" viewBox="0 0 80 80" fill="none" xmlns="http://www.w3.org/2000/svg">
<path d="M22.1895 42.8594H37.4783" stroke="#A76F58" stroke-width="3" stroke-linecap="round" stroke-linejoin="round"/>
<path d="M29.8335 50.5037V35.2148" stroke="#A76F58" stroke-width="3" stroke-linecap="round" stroke-linejoin="round"/>
<path d="M27.7476 65.3765C27.7476 69.5918 24.3295 72.9991 20.125 72.9991C15.9206 72.9991 12.5024 69.5809 12.5024 65.3765C12.5024 61.1721 15.9206 57.7539 20.125 57.7539C24.3295 57.7539 27.7476 61.1721 27.7476 65.3765Z" stroke="#A76F58" stroke-width="3" stroke-linecap="round" stroke-linejoin="round"/>
<path d="M57.9219 72.9991C62.1317 72.9991 65.5445 69.5863 65.5445 65.3765C65.5445 61.1667 62.1317 57.7539 57.9219 57.7539C53.7121 57.7539 50.2993 61.1667 50.2993 65.3765C50.2993 69.5863 53.7121 72.9991 57.9219 72.9991Z" stroke="#A76F58" stroke-width="3" stroke-linecap="round" stroke-linejoin="round"/>
<path d="M65.4453 64.0227H72.096C73.3518 64.0227 74.3893 62.9962 74.3893 61.7294V45.6761C74.3893 43.3063 71.8557 42.2143 68.3065 40.5762" stroke="#A76F58" stroke-width="3" stroke-linecap="round" stroke-linejoin="round"/>
<path d="M50.4736 64.0234H27.4312" stroke="#A76F58" stroke-width="3" stroke-linecap="round" stroke-linejoin="round"/>
<path d="M52.6906 40.6754H68.2852C68.2852 34.6145 65.0746 28.5645 59.3413 28.5645H52.6797V40.6754H52.6906Z" stroke="#A76F58" stroke-width="3" stroke-linecap="round" stroke-linejoin="round"/>
<path d="M12.8847 64.0232H7.29333C6.03746 64.0232 5 62.9966 5 61.7298V25.7574C5 24.4906 6.02654 23.4531 7.29333 23.4531H55.0273C57.7465 23.4531 59.3409 24.294 60.1272 26.1068L60.9135 28.4766" stroke="#A76F58" stroke-width="3" stroke-linecap="round" stroke-linejoin="round"/>
<path d="M50.2002 23.1039V17.2832H55.3001V23.4533" stroke="#A76F58" stroke-width="3" stroke-linecap="round" stroke-linejoin="round"/>
<path d="M10.5254 14.0059H32.9126" stroke="#A76F58" stroke-width="3" stroke-linecap="round" stroke-linejoin="round"/>
<path d="M27.9985 8H38.3731" stroke="#A76F58" stroke-width="3" stroke-linecap="round" stroke-linejoin="round"/>
</svg>
