<svg width="80" height="80" viewBox="0 0 80 80" fill="none" xmlns="http://www.w3.org/2000/svg">
<path d="M48.0192 18.25C52.2077 20.9154 55 25.5885 55 30.9309C55 39.2156 48.2846 45.931 40 45.931C31.7154 45.931 25 39.2156 25 30.9309C25 25.7385 27.6423 21.1577 31.6577 18.4692" stroke="#A76F58" stroke-width="3" stroke-linecap="round" stroke-linejoin="round"/>
<path d="M10 75.446C12.1577 59.1305 24.7808 46.5996 40.0346 46.5996C55.2885 46.5996 67.6808 58.9113 70 75.0191" stroke="#A76F58" stroke-width="3" stroke-linecap="round" stroke-linejoin="round"/>
<path d="M27.5034 50.9275L40.1957 75.1584L52.4957 50.5352" stroke="#A76F58" stroke-width="3" stroke-linecap="round" stroke-linejoin="round"/>
<path d="M40.0003 22.4617C45.0983 22.4617 49.2311 18.3289 49.2311 13.2308C49.2311 8.13279 45.0983 4 40.0003 4C34.9023 4 30.7695 8.13279 30.7695 13.2308C30.7695 18.3289 34.9023 22.4617 40.0003 22.4617Z" stroke="#A76F58" stroke-width="3" stroke-linecap="round" stroke-linejoin="round"/>
<path d="M39.9997 17.8461C42.5487 17.8461 44.615 15.7797 44.615 13.2307C44.615 10.6816 42.5487 8.61523 39.9997 8.61523C37.4507 8.61523 35.3843 10.6816 35.3843 13.2307C35.3843 15.7797 37.4507 17.8461 39.9997 17.8461Z" stroke="#A76F58" stroke-width="3" stroke-linecap="round" stroke-linejoin="round"/>
<path d="M45.6426 48.2266L42.1811 53.9958H36.7926L33.3311 48.2266" stroke="#A76F58" stroke-width="3" stroke-linecap="round" stroke-linejoin="round"/>
<path d="M36.7917 53.998L34.8647 64.7751" stroke="#A76F58" stroke-width="3" stroke-linecap="round" stroke-linejoin="round"/>
<path d="M42.1807 53.998L44.8691 64.002" stroke="#A76F58" stroke-width="3" stroke-linecap="round" stroke-linejoin="round"/>
</svg>
