<svg width="80" height="80" viewBox="0 0 80 80" fill="none" xmlns="http://www.w3.org/2000/svg">
<path d="M23.9048 34.9065L23.0104 32.3521V32.345C22.8244 31.8012 24.6561 31.1858 24.6561 31.1858C33.0109 28.3366 35.4674 34.3341 35.4674 34.3341C38.4725 42.0474 34.3369 42.9847 34.3369 42.9847C32.5052 43.55 32.126 45.2243 32.126 45.2243L31.017 69.7379C29.9854 71.3581 26.2317 72.6007 23.2895 69.7379L22.8673 49.5245C22.6428 45.0853 21.4465 43.0915 21.4465 43.0915C21.4465 43.0915 18.4956 42.1976 19.1539 37.1175C19.8121 32.0373 23.9048 34.9065 23.9048 34.9065Z" stroke="#A76F58" stroke-width="3" stroke-miterlimit="10" stroke-linecap="round" stroke-linejoin="round"/>
<path d="M24.5921 30.5501C24.5921 30.5501 20.3987 25.265 25.0352 22.7536C25.0352 22.7536 36.201 16.3723 64.9128 25.9443" stroke="#A76F58" stroke-width="3" stroke-miterlimit="10" stroke-linecap="round" stroke-linejoin="round"/>
<path d="M33.1777 31.3371C33.1777 31.3371 36.2185 27.3087 42.6724 28.6324C42.6724 28.6324 46.0281 29.2979 46.4646 31.7163L46.6506 32.532H47.1658C47.1658 32.532 58.4922 24.9475 65.7331 26.2927C65.7331 26.2927 70.4953 26.7419 69.6978 33.521C69.6978 33.521 68.1027 47.4781 61.2183 59.6072C61.2183 59.6072 59.3297 62.6314 59.7284 66.2204C59.7284 66.2204 60.526 71.4045 55.7375 72.7083C55.7375 72.7083 49.4411 74.9979 46.901 66.7266L40.1885 45.4842C38.5934 46.6805 34.8449 48.5149 32.6118 46.2818" stroke="#A76F58" stroke-width="3" stroke-miterlimit="10" stroke-linecap="round" stroke-linejoin="round"/>
<path d="M36.0254 34.5951C36.0254 34.5951 37.8142 32.5273 42.0714 32.7491" stroke="#A76F58" stroke-width="3" stroke-miterlimit="10" stroke-linecap="round" stroke-linejoin="round"/>
<path d="M51.7593 36.3184C51.7593 36.3184 56.4601 31.0522 64.1089 31.9609" stroke="#A76F58" stroke-width="3" stroke-miterlimit="10" stroke-linecap="round" stroke-linejoin="round"/>
<path d="M27.4751 36.3203C27.4751 36.3203 30.0438 37.3864 31.2029 40.5848" stroke="#A76F58" stroke-width="3" stroke-miterlimit="10" stroke-linecap="round" stroke-linejoin="round"/>
<path d="M68.2996 7C65.5082 9.39264 55.886 12.9816 39.5879 12.9816C18.0541 12.9816 12.1253 18.3569 10.4776 24.9448C9.28073 29.7301 10.4774 37.3067 12.4714 45.2822C14.964 55.2515 15.2623 64.0245 15.2623 72" stroke="#A76F58" stroke-width="3" stroke-linecap="round" stroke-linejoin="round"/>
</svg>
